<svg id="Livello_1" data-name="Livello 1" xmlns="http://www.w3.org/2000/svg" viewBox="0 0 513.04 464.12"><defs><style>.cls-1{fill-rule:evenodd;}</style></defs><path class="cls-1" d="M75,172H433c17.48,0,43.2.44,67,0,34.54-.64,47.87,1,56,12,10.66,14.48,6,52,6,76V447c0,29.5,3.63,60.1-14,72-7,4.73-20,5-33,5H329c14.42,18.82,70.59,69.21,87,92,1.66,2.3-.05,5.84,0,8-3.58,7.8-7.41,12-19,12-13.27-6.46-20.2-18.17-30-28l-67-68c-3.62-3.7-10.79-9.68-17-16-5.88-6-11-12.17-9-20,1.15-4.55,5-7.72,9-12,6.93-7.46,15.6-15.6,21-21l74-76c8.22-8.22,28.19-26,37-5,4.36,17.06-10.9,24.9-19,33l-66,68H475c16.62,0,43.45,3.55,51-6,4-5.06,4-15,4-26,0-11.51,0-24.18,0-33V270c0-8.29-.07-18.9,0-29,0-7.89.11-15.64,0-22-.09-5.64-4.44-9.61-8-12-5.12-3.44-18.95-2.93-35-3-21.34-.09-46.4,0-58,0H181c-14.23,0-36.09-.18-56,0-21,.19-38.38-2.87-43,15-.33,67,.33,132,0,199,0,9.68.08,24.64,0,38-.07,11.36-.7,21.47,3,27,8.89,13.3,38.83,7.8,62,9,16.85.87,23.13-3.41,29,8,3.05,5.06,1.92,12.48-1,17-3,6.31-14.23,7-28,7-6.95,0-14.63,0-22,0s-14.91,0-22,0c-20.89.1-39.27-1.07-48-14-5-7.4-5.13-20.09-5-34,.1-10.54,0-22,0-31V286c0-21.86,0-42,0-59C49.91,181.9,55.2,178.6,75,172Z" transform="translate(-49.97 -171.88)"/></svg>