<svg xmlns="http://www.w3.org/2000/svg" aria-hidden="true" focusable="false" data-prefix="fas" data-icon="pause" role="img" width="448" height="512"><rect id="backgroundrect" width="100%" height="100%" x="0" y="0" fill="none" stroke="none"/><g class="currentLayer" style=""><title>Layer 1</title><path fill="#ff7000" d="M143.42196530103683,479 H47.421965301036835 c-26.5,0 -48,-21.5 -48,-48 V79 c0,-26.5 21.5,-48 48,-48 h96 c26.5,0 48,21.5 48,48 v352 c0,26.5 -21.5,48 -48,48 zm304,-48 V79 c0,-26.5 -21.5,-48 -48,-48 h-96 c-26.5,0 -48,21.5 -48,48 v352 c0,26.5 21.5,48 48,48 h96 c26.5,0 48,-21.5 48,-48 z" id="svg_1" class="selected" fill-opacity="1"/></g></svg>