<svg id="Livello_1" data-name="Livello 1" xmlns="http://www.w3.org/2000/svg" viewBox="0 0 512 512"><defs><style>.cls-1{fill:none;}.cls-2{fill:#0099cd;fill-rule:evenodd;}</style></defs><path class="cls-1" d="M0,0H512V512H0Z"/><path class="cls-2" d="M44,159v35c21.09.24,41.92.71,63,0,10.72-.36,22.12.29,25,1,15.45,4.26,26.14,12.06,42.77,30.64,10.73,12,23.37,22.56,29.23,30.36-12,12.25-20.91,20.78-34,35-4.59,5-15.24,14-20,18-7.37,8.28-27.94,10.1-55,9-15.68-.64-33.42,0-51,0v35l94-1c27.81-5.48,46.74-25.63,66-45,9.55-9.61,18.09-18.37,25-26l52,52c4.93,4.47,11.95,7.54,18,11,6.49,3.72,13.46,6.11,22,8,19.72,1.2,39.34.75,59,1-.19,5.76.11,11.93,0,17-.12,5.81-.5,10.33,2,14,.33,0,2,2.13,3,2,1.93.09,5.69.91,9-1,3.85-2.22,7.28-5,12-8,9-5.73,19.84-11.84,30-18,15.35-9.32,31.37-18,32-22-.23-1.44.62-5.32-2-7-15.57-10-57.64-35.89-75-45-1.81-.95-5.81-.86-7,0-2.33,1.69-3,3.46-4,5-.67,9.67.67,18.33,0,28-31.62.58-50.54.75-64-5-14-6-22.23-18.23-38-34-7.67-8-15.33-15-23-23,16.33-16.33,32.67-33.67,49-50,4.67-2.12,9.5-6.8,16-9,16.66-5.64,38.73-3.37,60-3,.33,10-1.73,18.91,0,29,.81.43,1.61,2.06,3,3,1.57,1.07,2.42,1.16,5,1,3.3-1.72,8.61-2.91,14-6,31.19-17.88,49-28.62,62-37,2.26-1.45,2.88-4.29,4-5.23a6.15,6.15,0,0,0-2.77-7.51c-9.8-6.1-27.85-17.37-44.28-27.26-13.05-7.85-24.89-17-33-18-3.4-.43-6,1.36-8,4-.33,9.67.33,19.33,0,29-19.33.33-39.32-.75-59,1-21.33,4.74-41.27,19.14-59,38-11,11.68-24.85,23.39-32,33l-52-52c-8.68-6.56-19.5-13.16-32-17-15.66-4.81-36.67-3.06-58-3Z"/></svg>